<svg xmlns="http://www.w3.org/2000/svg" viewBox="0 0 570 202" width="100%" height="100%" fill="none">
  <!-- Recreated BOPL Orange Swoosh -->
  <path d="M0 0 C7.12795513755691 -0.29249755559774826 13.519041267963615 0.41929704071914387 20.4375 2.125 C21.355473632812505 2.3501831054687514 22.27344726562501 2.575366210937503 23.21923828125 2.807373046875 C33.94926365984378 5.582642068807786 42.61306764741755 9.580279014587497 49 19 C50.80744474957078 24.42233424871236 50.435217498681766 28.63891433393799 48.125 33.8125 C43.503167476017865 42.41460755879962 35.35510659092347 49.96236220253144 27 55 C26.340000000000003 55 25.680000000000007 55 25 55 C25 55.66 25 56.31999999999999 25 57 C27.639999999999986 57 30.28 57 33 57 C32.91087990428721 58.355240076184174 32.802720068195725 59.70922900295598 32.6875 61.0625 C32.629492187500006 61.8166015625 32.57148437500001 62.570703124999994 32.51171875 63.34765625 C32 66 32 66 29 73 C19.430000000000007 73 9.860000000000014 73 0 73 C-0.3299999999999841 72.01 -0.6599999999999966 71.02 -1 70 C-1.5598559570312602 70.21728759765625 -2.119711914062492 70.4345751953125 -2.696533203125 70.658447265625 C-5.231581844674906 71.63613531892005 -7.77185968038944 72.59944139509346 -10.3125 73.5625 C-11.193574218750001 73.90474609375 -12.074648437500002 74.2469921875 -12.982421875 74.599609375 C-13.406201171875011 74.759130859375 -13.406201171875011 74.759130859375 -15.55078125 75.56640625 C-16.33106689453126 75.86490478515626 -17.111352539062494 76.16340332031251 -17.915283203125 76.470947265625 C-20 77 -20 77 -23 76 C-19.534999999999997 74.185 -19.534999999999997 74.185 -2 65 C-1.670000000000016 46.519999999999996 -1.3400000000000034 28.039999999999992 -1 9 C2.3000000000000114 8.670000000000002 5.599999999999994 8.340000000000003 9 8 C8.350312500000001 7.590078124999998 7.700625000000002 7.180156249999996 7.03125 6.7578125 C6.195937500000014 6.218984374999998 5.360624999999999 5.680156249999996 4.5 5.125 C3.6646875000000136 4.591328125000004 2.829374999999999 4.057656250000001 1.96875 3.5078125 C1.6439062499999864 3.259023437499998 1.6439062499999864 3.259023437499998 0 2 C0 1.3400000000000034 0 0.6799999999999997 0 0 Z M15 13 C15 25.539999999999992 15 38.08 15 51 C20.643564356435633 46.48514851485149 20.643564356435633 46.48514851485149 22.25 43 C22.564531250000016 42.34 22.879062500000003 41.68000000000001 23.203125 41 C25.393921433296725 35.50153052035334 26.164065183751745 29.99331047250452 23.98828125 24.3984375 C21.9970716422917 20.344262983404718 19.94923919718218 16.447368069628496 17 13 C16.340000000000003 13 15.680000000000007 13 15 13 Z  M0 0 C0.3299999999999983 0 0.6599999999999966 0 1 0 C1 1.6500000000000057 1 3.299999999999997 1 5 C1.3911901855468756 4.997381591796881 1.3911901855468756 4.997381591796881 3.370849609375 4.984130859375 C6.893058334735649 4.963428940670781 10.41525430064469 4.950361617055549 13.9375 4.9375 C15.169199218750002 4.929121093749998 16.400898437499997 4.920742187499997 17.669921875 4.912109375 C18.254833984374997 4.910498046875006 18.254833984374997 4.910498046875006 21.21484375 4.90234375 C21.756854248046878 4.899725341796881 21.756854248046878 4.899725341796881 24.499755859375 4.886474609375 C27 5 27 5 28 6 C28.5 8.625 28.5 8.625 28 12 C24.85534949626934 16.24182252014218 22.162516687839577 18.709370828040107 17 20 C17 15.379999999999995 17 10.760000000000005 17 6 C12.71 6 8.420000000000002 6 4 6 C4 21.180000000000007 4 36.36 4 52 C15.880000000000003 51.67 27.760000000000005 51.34 40 51 C35.570274022624574 55.429725977375426 28.962150970749263 54.1640450296473 23.08203125 54.185546875 C22.3918994140625 54.18546630859376 21.701767578125 54.18538574218749 20.99072265625 54.185302734375 C18.87512405412736 54.18749987116465 16.76003843261271 54.20570776754337 14.64453125 54.224609375 C13.302085114909033 54.227541616338144 11.959636507520088 54.22952754424563 10.6171875 54.23046875 C10.00673583984375 54.23252319335937 10.00673583984375 54.23252319335937 6.91748046875 54.242919921875 C4 54 4 54 2 52 C1.68115234375 49.11083984375 1.68115234375 49.11083984375 1.5859375 45.4609375 C1.5472656250000014 44.158984375 1.5085937500000028 42.857031250000006 1.46875 41.515625 C1.4372923677128426 40.13542138340074 1.4060450899551071 38.7552129575875 1.375 37.375 C1.3368206624750485 35.986954593372474 1.2977689505030057 34.59893288714537 1.2578125 33.2109375 C1.1632705736324311 29.807428150767436 1.0777210297115118 26.40392835004785 1 23 C-3.1430130183378395 30.640508746346967 -5.407302776496309 36.20726529726272 -4 45 C-0.6180321232645838 56.19771182153545 8.269944366258947 62.401278665328306 18.12890625 67.7734375 C18.7463671875 68.17820312499998 19.363828124999998 68.58296875000002 20 69 C20 69.66 20 70.32 20 71 C4.490893835391084 70.76757470325518 -14.055383991607322 68.78197041947038 -25.671875 57.35546875 C-29.693823509588665 52.71215179089623 -30.37304276253348 49.630337770069545 -30.26171875 43.64453125 C-29.385182722708727 34.78759258617623 -22.43477091967264 27.644740221540886 -16 22 C-10.69040900060147 17.936104957452372 -4.985513873724031 13.992756936862023 1 11 C1.625 8.437499999999986 1.625 8.437499999999986 2 6 C1.0100000000000051 5.670000000000002 0.01999999999999602 5.340000000000003 -1 5 C-0.6700000000000017 3.3499999999999943 -0.3400000000000034 1.7000000000000028 0 0 Z M18 8 C17.8046875 10.3828125 17.8046875 10.3828125 17.875 13.125 C17.893046875000003 14.035078124999998 17.91109375 14.945156249999997 17.9296875 15.8828125 C17.952890625000002 16.581484375000002 17.976093749999997 17.280156250000005 18 18 C22.326403289164958 16.05450815690655 24.287546200737737 13.87493399894609 27 10 C26.8125 7.625 26.8125 7.625 26 6 C20.25 5.75 20.25 5.75 18 8 Z  M0 0 C0 3 0 3 -1.5 5.9375 C-4.121246896305074 11.91091840792599 -4.036889909746719 18.518654650850394 -2.19140625 24.71484375 C2.1010296968652256 34.35425873102261 10.1069350678872 39.85735579041648 19.12890625 44.7734375 C19.7463671875 45.17820312500001 20.363828124999998 45.58296874999999 21 46 C21 46.66 21 47.31999999999999 21 48 C11.621862289059685 47.658762868736176 2.9751057305330733 47.02339366770076 -6 44 C-2.557302528773036 42.84435272679471 -0.14587373643783508 43.18302705647761 3.375 43.9375 C7.329158288676723 44.72621430389938 10.94911359636204 45.218966832629064 15 45 C12.540923095007855 43.45429451686209 10.349061206762386 42.10740344823458 7.5625 41.25 C3.6761611739179045 39.354224962886775 1.5859798688126645 36.39155998501349 -1 33 C-1.492421874999998 32.4469921875 -1.984843749999996 31.893984375000002 -2.4921875 31.32421875 C-7.548461576647959 24.88246844331009 -6.737380668306592 16.75413986987671 -6 9 C-4.691484334192829 2.4677688143069076 -4.691484334192829 2.4677688143069076 -1.875 0.5625 C-1.5656249999999972 0.46968750000000625 -1.5656249999999972 0.46968750000000625 0 0 Z  M0 0 C0 2.972136884585751 -0.4684568315674795 4.518320868780549 -1.5 7.25 C-3.075351939137237 11.908217695630682 -4.254849324424855 16.160387913742824 -2.16796875 20.8828125 C-0.5999836608505369 23.68991689181064 1.2172171875794646 26.32582578136919 3 29 C-1.3885567717107854 27.275924125399342 -3.9148693654970117 24.170261269005977 -6 20 C-6.7823205758017995 13.100189019977577 -5.890094492193674 7.792549462828532 -2 2 C-1.3399999999999999 1.3400000000000034 -0.6799999999999997 0.6800000000000068 0 0 Z  M0 0 C0.9208992105524203 3.1080348356144327 1.4722832364326734 5.772731217710046 1 9 C-1.5 11.8125 -1.5 11.8125 -4 14 C-4.659999999999997 13.670000000000002 -5.319999999999993 13.340000000000003 -6 13 C-4.680000000000007 9.700000000000003 -3.3600000000000136 6.400000000000006 -2 3 C-1.3400000000000034 3 -0.6800000000000068 3 0 3 C0 2.010000000000005 0 1.019999999999996 0 0 Z  M0 0 C0.3300000000000125 0.6599999999999966 0.6599999999999966 1.3199999999999932 1 2 C0.6699999999999875 2.989999999999995 0.3400000000000034 3.980000000000004 0 5 C0.5981250000000102 4.649375000000006 1.196249999999992 4.298749999999998 1.8125 3.9375 C4 3 4 3 7 4 C4.288177876492881 6.603349238566835 3.1086618736528067 6.99456690631736 -0.75 7.1875 C-1.822499999999991 7.125624999999999 -2.8950000000000102 7.063749999999999 -4 7 C-4 5.680000000000007 -4 4.359999999999999 -4 3 C-2 1.25 -2 1.25 0 0 Z  M0 0 C0.3299999999999983 0 0.6599999999999966 0 1 0 C1 2.3100000000000023 1 4.6200000000000045 1 7 C0.3400000000000034 7 -0.3200000000000003 7 -1 7 C-1.6599999999999966 8.650000000000006 -2.3200000000000003 10.299999999999997 -3 12 C-4 10 -4 10 -3.4765625 7.87109375 C-3.3360546875000026 7.469550781250007 -3.3360546875000026 7.469550781250007 -2.625 5.4375 C-2.349140624999997 4.6318359375 -2.073281250000001 3.826171875 -1.7890625 2.99609375 C-1 1 -1 1 0 0 Z  M0 0 C3.5490538244768004 0.6084092270531656 6.800870372242514 1.3115704742391046 10 3 C10.8125 5.125 10.8125 5.125 11 7 C10.009999999999991 6.670000000000002 9.02000000000001 6.340000000000003 8 6 C8 5.340000000000003 8 4.68 8 4 C7.236874999999998 3.8968750000000014 6.4737499999999955 3.793750000000003 5.6875 3.6875 C2.829405758934257 2.9563596127506244 1.842571153862906 2.230480870465634 0 0 Z  M0 0 C0.6599999999999966 0.3299999999999983 1.3200000000000003 0.6599999999999966 2 1 C0.7103482395616822 2.3756285444675456 -0.6268929256184634 3.7076639299938563 -2 5 C-2.66 5 -3.3200000000000003 5 -4 5 C-4.329999999999998 5.989999999999995 -4.66 6.980000000000004 -5 8 C-6.32 7.670000000000002 -7.640000000000001 7.340000000000003 -9 7 C-6.030000000000001 4.689999999999998 -3.0599999999999987 2.3799999999999955 0 0 Z " fill="#FF6B00" />
  
  <!-- Recreated BOPL Text & Tagline -->
  <path d="M0 0 C2.0548292339489294 -0.01700977913144186 4.107961182556792 -0.06083882450846545 6.162353515625 -0.105224609375 C21.55019948874849 -0.20314041830823726 21.55019948874849 -0.20314041830823726 27.656494140625 4.295166015625 C30.412457712023354 9.763709237581125 30.200759860719387 15.300119725630069 29.656494140625 21.295166015625 C28.31570526424477 24.769028104428344 26.713636521718612 27.20945244398459 24.656494140625 30.295166015625 C25.066416015624995 30.742470703125008 25.476337890625004 31.189775390625 25.898681640625 31.650634765625 C26.437509765624995 32.255205078125 26.976337890625004 32.859775390625 27.531494140625 33.482666015625 C28.065166015624996 34.074345703125005 28.598837890625006 34.66602539062501 29.148681640625 35.275634765625 C33.254988710180896 40.77553309453795 33.43584363135001 46.67069534446236 32.656494140625 53.295166015625 C30.33565523017883 58.20463294156883 27.354897613463606 60.652314062153295 22.656494140625 63.295166015625 C17.262874647350912 65.12126364067487 11.279431445271058 64.4811262581308 5.647216796875 64.48046875 C3.5316181947523617 64.48266588678965 1.4165325732377099 64.50087378316837 -0.698974609375 64.519775390625 C-2.0414207444659667 64.52270763196314 -3.383869351854912 64.52469355987061 -4.726318359375 64.525634765625 C-5.336770019531251 64.52768920898438 -5.336770019531251 64.52768920898438 -8.426025390625 64.5380859375 C-11.343505859375 64.295166015625 -11.343505859375 64.295166015625 -13.343505859375 62.295166015625 C-13.662353515625 59.406005859375 -13.662353515625 59.406005859375 -13.757568359375 55.756103515625 C-13.796240234374999 54.454150390625 -13.834912109374997 53.152197265625006 -13.874755859375 51.810791015625 C-13.906213491662157 50.43058739902574 -13.937460769419893 49.0503789732125 -13.968505859375 47.670166015625 C-14.006685196899952 46.282120608997474 -14.045736908871994 44.89409890277037 -14.085693359375 43.506103515625 C-14.180235285742569 40.102594166392436 -14.265784829663488 36.69909436567286 -14.343505859375 33.295166015625 C-18.48651887771284 40.93567476197197 -20.75080863587131 46.50243131288771 -19.343505859375 55.295166015625 C-15.961537982639584 66.49287783716045 -7.073561493116053 72.69644468095333 2.785400390625 78.068603515625 C3.402861328124999 78.47336914062498 4.020322265624998 78.87813476562502 4.656494140625 79.295166015625 C4.656494140625 79.955166015625 4.656494140625 80.615166015625 4.656494140625 81.295166015625 C-10.852612023983909 81.06274071888018 -29.398889850982325 79.07713643509538 -41.015380859375 67.650634765625 C-45.03732936896366 63.00731780652124 -45.71654862190848 59.92550378569453 -45.605224609375 53.939697265625 C-44.72868858208373 45.08275860180123 -37.778276779047644 37.939906237165886 -31.343505859375 32.295166015625 C-26.03391485997647 28.231270973077372 -20.329019733099038 24.287922952487023 -14.343505859375 21.295166015625 C-13.718505859375 18.732666015625 -13.718505859375 18.732666015625 -13.343505859375 16.295166015625 C-14.333505859374995 15.965166015625002 -15.323505859375004 15.635166015625003 -16.343505859375 15.295166015625 C-15.868878364087863 12.981730110923536 -15.38868307236509 10.66943582520912 -14.906005859375 8.357666015625 C-14.639169921874995 7.069892578125007 -14.372333984375004 5.782119140624999 -14.097412109375 4.455322265625 C-12.50719347760245 -2.2104128281780646 -5.8998837245441536 0.03393523917157637 0 0 Z M2.656494140625 18.295166015625 C2.461181640625 20.677978515625 2.461181640625 20.677978515625 2.531494140625 23.420166015625 C2.549541015625003 24.330244140625 2.567587890624999 25.240322265624997 2.586181640625 26.177978515625 C2.609384765625002 26.876650390625002 2.632587890624997 27.575322265625005 2.656494140625 28.295166015625 C6.982897429789958 26.34967417253155 8.944040341362737 24.17010001457109 11.656494140625 20.295166015625 C11.468994140625 17.920166015625 11.468994140625 17.920166015625 10.656494140625 16.295166015625 C4.906494140625 16.045166015625 4.906494140625 16.045166015625 2.656494140625 18.295166015625 Z M2.656494140625 33.295166015625 C2.656494140625 38.245166015625 2.656494140625 43.195166015625006 2.656494140625 48.295166015625 C6.286494140625003 48.295166015625 9.916494140624991 48.295166015625 13.656494140625 48.295166015625 C14.656494140625 44.295166015625 14.656494140625 44.295166015625 13.582275390625 42.260009765625 C13.049892578124997 41.590986328125 12.517509765624993 40.921962890625 11.968994140625 40.232666015625 C11.449501953125008 39.561064453125 10.930009765625002 38.889462890625 10.394775390625 38.197509765625 C8.612336574526353 36.24684076913053 6.8669670733907395 34.74030208775902 4.656494140625 33.295166015625 C3.9964941406250034 33.295166015625 3.3364941406249997 33.295166015625 2.656494140625 33.295166015625 Z  M0 0 C5.5697981336912505 3.641791087413509 8.508000191323134 7.5768143829842955 10 14 C11.464022603470653 27.693513958559222 9.936514366683753 42.38701206639655 2 54 C-2.208682291661546 58.4828394127733 -6.09524050232217 62.620716036053594 -12.453125 63.23828125 C-18.632843123741992 63.402268183451255 -23.262122593909552 63.225996178799264 -28 59 C-38.32445368474538 47.95233579144394 -40.8473172979035 33.65753940126439 -41 19 C-40.23258850414642 10.619379219884678 -36.47247771232048 4.4188185498497035 -30 -1 C-20.4339151459951 -4.348129698901715 -9.098960461204456 -4.797633697725992 0 0 Z M-23 16 C-25.673153542048084 24.037047162605063 -23.511385768697153 34.147954231979625 -20.1875 41.6875 C-18 45 -18 45 -15.25 46 C-14.507499999999993 46 -13.765 46 -13 46 C-7.542235546659185 37.44950235643273 -5.633459657182797 28.153541686953645 -7 18 C-8.27734375 15.703125 -8.27734375 15.703125 -10 14 C-15.110636050853117 12.763555794148445 -19.060079616866886 11.940688090105269 -23 16 Z  M0 0 C29.750560358629514 -0.5244956772334319 29.750560358629514 -0.5244956772334319 37 6 C41.22157860097613 11.488052181268984 40.83616198205473 18.40361103045703 40 25 C37.31275356410325 32.89112048636348 32.58530536024239 38.99922074927022 26.0625 44.125 C25.228476562499992 44.78757812500001 24.394453124999984 45.45015624999999 23.53515625 46.1328125 C16.926778242677813 51 16.926778242677813 51 14 51 C14.011601562500005 51.9268359375 14.023203125000009 52.853671875 14.03515625 53.80859375 C14.044179687499991 55.0061328125 14.05320312500001 56.203671875 14.0625 57.4375 C14.074101562500005 58.6324609375 14.085703125000009 59.827421875 14.09765625 61.05859375 C14 64 14 64 13 65 C10.83519203389696 65.0989293963004 8.667062150006444 65.12971100467392 6.5 65.125 C5.314062500000006 65.127578125 4.128125000000011 65.13015625 2.90625 65.1328125 C0 65 0 65 -1 64 C-1.093118894388482 62.49581260625226 -1.1174602779106522 60.98728643978005 -1.113525390625 59.480224609375 C-1.113487625122076 58.999764328002925 -1.113487625122076 58.999764328002925 -1.1132965087890625 56.56834411621094 C-1.1081352233886719 55.52356399536133 -1.1029739379882813 54.47878387451172 -1.09765625 53.40234375 C-1.0969487762451138 52.87034614562988 -1.0969487762451138 52.87034614562988 -1.0933685302734375 50.17811584472656 C-1.0877506367611147 46.764549167571076 -1.0751951084959614 43.351047003318726 -1.0625 39.9375 C-1.0574873050732947 37.629558235841756 -1.052923999872803 35.32161544832786 -1.048828125 33.013671875 C-1.0377753962593488 27.342425735693837 -1.0210198675978006 21.671217474808202 -1 16 C-2.319999999999993 16 -3.6399999999999864 16 -5 16 C-4.740691711845386 14.456353014044367 -4.466905239992059 12.91513620093177 -4.1875 11.375 C-4.036679687499998 10.516484375000005 -3.8858593749999955 9.657968749999995 -3.73046875 8.7734375 C-2.8902283797655457 5.583220051516221 -1.5530177657616377 2.901803058217652 0 0 Z M14 16 C14 21.28 14 26.560000000000002 14 32 C21.400000000000006 27.066666666666663 21.400000000000006 27.066666666666663 24 21 C23.375 18.625 23.375 18.625 22 17 C20 16 20 16 14 16 Z  M0 0 C4.6200000000000045 0 9.240000000000009 0 14 0 C14 15.510000000000005 14 31.02000000000001 14 47 C19.939999999999998 47.33 25.879999999999995 47.66 32 48 C30.125 58.75 30.125 58.75 29 61 C19.430000000000007 61 9.860000000000014 61 0 61 C0 40.870000000000005 0 20.739999999999995 0 0 Z  M0 0 C7.277811960862692 -0.3269713144856041 13.7026887368132 0.5328244349839437 20.75 2.3125 C21.656210937499992 2.525839843749999 22.562421874999984 2.7391796874999983 23.49609375 2.958984375 C28.368514140319746 4.150415638326358 32.62825036490807 5.531843335155045 37 8 C36.00999999999999 8.329999999999998 35.02000000000001 8.659999999999997 34 9 C32.66666666666666 8.333333333333336 31.333333333333343 7.666666666666664 30 7 C27.59447101080562 6.5591677644236555 25.17529617808492 6.189390245307308 22.75 5.875 C21.486718749999994 5.707421875000001 20.22343749999999 5.539843750000003 18.921875 5.3671875 C17.957656250000014 5.246015624999998 16.9934375 5.124843749999997 16 5 C16.8125 7.937499999999979 16.8125 7.937499999999979 18 11 C18.99000000000001 11.329999999999998 19.97999999999999 11.659999999999997 21 12 C22.1328125 14.468750000000028 22.1328125 14.468750000000028 23.125 17.5 C24.930501930501947 22.930501930501947 24.930501930501947 22.930501930501947 26 24 C26.125489893543545 25.955307643585243 26.175753625843583 27.91570479071207 26.1875 29.875 C26.20167968749999 30.944921875000006 26.215859375000008 32.01484375 26.23046875 33.1171875 C26 36 26 36 24 39 C24.058007812499994 38.24976562500001 24.11601562499999 37.49953124999999 24.17578125 36.7265625 C24.52703167982554 28.75819560624332 23.056425386939964 23.785293374517764 19 17 C18.322441980337203 15.67216817623131 17.652002215774843 14.340565303462284 17 13 C16.340000000000003 13 15.680000000000007 13 15 13 C15.329999999999984 25.210000000000008 15.659999999999997 37.42 16 50 C17.650000000000006 48.349999999999994 19.30000000000001 46.7 21 45 C20.459126818250752 48.786112272244736 18.882776675484678 50.554007669285724 16 53 C15.340000000000003 53 14.680000000000007 53 14 53 C14 38.81 14 24.620000000000005 14 10 C9.379999999999995 10 4.759999999999991 10 0 10 C0 30.129999999999995 0 50.260000000000005 0 71 C9.569999999999993 71 19.139999999999986 71 29 71 C29.99000000000001 66.71 30.97999999999999 62.42 32 58 C28.039999999999992 58 24.079999999999984 58 20 58 C23.143393740120473 54.53142759710843 26.4631432350846 51.92316442008013 30.3125 49.25 C37.144624898478924 44.36332497139833 44.26870594104531 38.19388217686404 47 30 C47.70054318423189 24.385646766370087 47.32678457422412 20.712944813484157 44 16 C44 15.010000000000005 44 14.019999999999996 44 13 C49.70383912248627 19.58135283363802 49.70383912248627 19.58135283363802 50.375 25.0625 C49.28394632440694 36.51856359372711 41.07442774925278 43.94301371455241 32.64453125 50.9609375 C27.43926056338026 55 27.43926056338026 55 25 55 C25 55.66 25 56.31999999999999 25 57 C27.639999999999986 57 30.28 57 33 57 C32.91087990428721 58.355240076184174 32.802720068195725 59.70922900295598 32.6875 61.0625 C32.629492187500006 61.8166015625 32.57148437500001 62.570703124999994 32.51171875 63.34765625 C32 66 32 66 29 73 C19.430000000000007 73 9.860000000000014 73 0 73 C-0.3299999999999841 72.01 -0.6599999999999966 71.02 -1 70 C-1.5598559570312602 70.21728759765625 -2.119711914062492 70.4345751953125 -2.696533203125 70.658447265625 C-5.231581844674906 71.63613531892005 -7.77185968038944 72.59944139509346 -10.3125 73.5625 C-11.193574218750001 73.90474609375 -12.074648437500002 74.2469921875 -12.982421875 74.599609375 C-13.406201171875011 74.759130859375 -13.406201171875011 74.759130859375 -15.55078125 75.56640625 C-16.33106689453126 75.86490478515626 -17.111352539062494 76.16340332031251 -17.915283203125 76.470947265625 C-20 77 -20 77 -23 76 C-19.534999999999997 74.185 -19.534999999999997 74.185 -2 65 C-1.670000000000016 46.519999999999996 -1.3400000000000034 28.039999999999992 -1 9 C2.3000000000000114 8.670000000000002 5.599999999999994 8.340000000000003 9 8 C8.350312500000001 7.590078124999998 7.700625000000002 7.180156249999996 7.03125 6.7578125 C6.195937500000014 6.218984374999998 5.360624999999999 5.680156249999996 4.5 5.125 C3.6646875000000136 4.591328125000004 2.829374999999999 4.057656250000001 1.96875 3.5078125 C1.6439062499999864 3.259023437499998 1.6439062499999864 3.259023437499998 0 2 C0 1.3400000000000034 0 0.6799999999999997 0 0 Z  M0 0 C1.3199999999999932 0.3299999999999983 2.6399999999999864 0.6599999999999966 4 1 C3.8362890624999864 1.5207812499999989 3.6725781249999727 2.0415624999999977 3.50390625 2.578125 C2.859413406433191 5.675687503964568 2.9058841094321224 8.58841094321329 2.9375 11.75 C2.946523437499991 12.920468749999998 2.955546874999982 14.090937499999995 2.96484375 15.296875 C2.9764453125000045 16.188906250000002 2.988046875000009 17.080937500000005 3 18 C1.6800000000000068 18 0.36000000000001364 18 -1 18 C-1.329999999999984 16.349999999999994 -1.6599999999999682 14.700000000000003 -2 13 C-2.0928124999999795 13.309375000000003 -2.0928124999999795 13.309375000000003 -2.5625 14.875 C-4.714372328866261 18.05602866006322 -7.37533763056274 18.1945194734584 -11 19 C-11.329999999999984 20.319999999999993 -11.660000000000025 21.64 -12 23 C-13.9375 22.3125 -13.9375 22.3125 -16 21 C-16.75 18.375 -16.75 18.375 -17 16 C-17.783749999999998 16.495000000000005 -18.567499999999995 16.989999999999995 -19.375 17.5 C-22 19 -22 19 -24 19 C-24.329999999999984 20.319999999999993 -24.660000000000025 21.64 -25 23 C-26.319999999999993 22.340000000000003 -27.639999999999986 21.680000000000007 -29 21 C-29 20.010000000000005 -29 19.019999999999996 -29 18 C-30.23750000000001 18.206249999999997 -31.475000000000023 18.412499999999994 -32.75 18.625 C-36.119098354433845 19.061071240910763 -38.12841921491275 19.03403638943678 -41 17 C-41.125 11.25 -41.125 11.25 -40 9 C-40.329999999999984 8.010000000000005 -40.660000000000025 7.019999999999996 -41 6 C-37.767462037644236 3.8449746917628147 -36.748490766941984 3.531438654132259 -33 4 C-31.1875 5.5 -31.1875 5.5 -30 7 C-29.64937500000002 6.5049999999999955 -29.298749999999984 6.010000000000005 -28.9375 5.5 C-25.990992395964838 3.218832822682458 -23.621271949719414 3.682344565814091 -20 4 C-17.5625 5 -17.5625 5 -16 6 C-15.339999999999975 5.340000000000003 -14.680000000000007 4.680000000000007 -14 4 C-11.297231235126105 3.912813910810513 -8.693135247045632 3.9085350293456145 -6 4 C-4.680000000000007 4 -3.3600000000000136 4 -2 4 C-1.3400000000000318 2.680000000000007 -0.6800000000000068 1.3599999999999994 0 0 Z M-23 8 C-24 9 -24 9 -24.0625 11.5625 C-24.041875000000005 12.366874999999993 -24.02125000000001 13.17125 -24 14 C-23.00999999999999 14 -22.019999999999982 14 -21 14 C-21 12.349999999999994 -21 10.700000000000003 -21 9 C-21.660000000000025 8.670000000000002 -22.319999999999993 8.340000000000003 -23 8 Z M-10 8 C-11 9 -11 9 -11.0625 11.5625 C-11.041875000000005 12.366874999999993 -11.021250000000009 13.17125 -11 14 C-9.680000000000007 13.670000000000002 -8.360000000000014 13.340000000000003 -7 13 C-7 11.680000000000007 -7 10.36 -7 9 C-7.990000000000009 8.670000000000002 -8.980000000000018 8.340000000000003 -10 8 Z  M0 0 C2.0182291666666856 0.0651041666666714 4.036458333333314 0.1302083333333286 6.0546875 0.1953125 C6.714687500000025 1.5153124999999932 7.374687499999993 2.8353125000000006 8.0546875 4.1953125 C8.714687500000025 4.1953125 9.374687499999993 4.1953125 10.0546875 4.1953125 C10.384687499999984 3.205312500000005 10.714687500000025 2.215312499999996 11.0546875 1.1953125 C17.454687499999977 -0.0354567307692264 17.454687499999977 -0.0354567307692264 20.4921875 1.1328125 C21.0078125 1.4834374999999937 21.5234375 1.8340625000000017 22.0546875 2.1953125 C22.714687500000025 1.5353125000000034 23.374687499999993 0.8753125000000068 24.0546875 0.1953125 C25.999497132584906 0.42605262589989934 27.944221769732962 0.6645765716582019 29.87890625 0.96875 C33.09322796659433 1.3034549543311869 35.888595765894365 0.7889547001448136 39.0546875 0.1953125 C39.71468749999997 1.1853124999999949 40.37468750000005 2.175312500000004 41.0546875 3.1953125 C40.39468750000003 4.185312499999995 39.73468749999995 5.175312500000004 39.0546875 6.1953125 C39.71468749999997 6.525312499999998 40.37468750000005 6.855312499999997 41.0546875 7.1953125 C41.3671875 9.5078125 41.3671875 9.5078125 41.0546875 12.1953125 C38.9296875 14.0703125 38.9296875 14.0703125 36.0546875 15.1953125 C33.1796875 14.8828125 33.1796875 14.8828125 30.0546875 14.1953125 C27.72165761075837 14.157682985657388 25.387554306620018 14.148655163867602 23.0546875 14.1953125 C22.724687500000016 12.875312500000007 22.394687499999975 11.5553125 22.0546875 10.1953125 C23.04468750000001 9.865312500000002 24.034687500000018 9.535312500000003 25.0546875 9.1953125 C24.06468749999999 8.865312500000002 23.074687499999982 8.535312500000003 22.0546875 8.1953125 C21.394687499999975 8.855312499999997 20.734687500000007 9.515312499999993 20.0546875 10.1953125 C20.384687499999984 11.185312499999995 20.714687500000025 12.175312500000004 21.0546875 13.1953125 C18.3671875 14.3828125 18.3671875 14.3828125 15.0546875 15.1953125 C12.1796875 13.8203125 12.1796875 13.8203125 10.0546875 12.1953125 C9.394687499999975 12.855312499999997 8.734687500000007 13.515312499999993 8.0546875 14.1953125 C6.734687500000007 14.1953125 5.414687500000014 14.1953125 4.0546875 14.1953125 C4.0546875 11.225312500000001 4.0546875 8.255312500000002 4.0546875 5.1953125 C3.064687499999991 5.1953125 2.074687499999982 5.1953125 1.0546875 5.1953125 C1.0546875 8.165312499999999 1.0546875 11.135312499999998 1.0546875 14.1953125 C-0.5953124999999773 13.865312500000002 -2.2453125000000114 13.535312500000003 -3.9453125 13.1953125 C-3.9992324264015906 11.403972722879985 -4.038068214561122 9.61217350510394 -4.0703125 7.8203125 C-4.093515625000009 6.822578125000007 -4.116718750000018 5.824843749999999 -4.140625 4.796875 C-3.9047104109484394 1.6544926738335448 -3.284038113162012 0.32972270212469823 0 0 Z M30.0546875 4.1953125 C29.394687500000032 4.855312499999997 28.73468749999995 5.515312499999993 28.0546875 6.1953125 C29.8046875 8.2578125 29.8046875 8.2578125 32.0546875 10.1953125 C34.3046875 9.9453125 34.3046875 9.9453125 36.0546875 9.1953125 C34.07468749999998 7.545312499999994 32.094687499999964 5.895312500000003 30.0546875 4.1953125 Z  M0 0 C0.9900000000000091 0.3299999999999983 1.9800000000000182 0.6599999999999966 3 1 C3.329999999999984 2.6500000000000057 3.660000000000025 4.299999999999997 4 6 C4.990000000000009 6 5.980000000000018 6 7 6 C7.660000000000025 4.019999999999996 8.319999999999993 2.0400000000000063 9 0 C10.319999999999993 0.3299999999999983 11.639999999999986 0.6599999999999966 13 1 C13.329999999999984 2.980000000000004 13.660000000000025 4.959999999999994 14 7 C14.175312500000018 6.7421875 14.175312500000018 6.7421875 15.0625 5.4375 C17 4 17 4 20.5 4 C24 5 24 5 25.9375 7.5625 C26.28812499999998 8.366874999999993 26.638750000000016 9.17125 27 10 C27 8.349999999999994 27 6.700000000000003 27 5 C33.625 3.75 33.625 3.75 37 6 C37.51171875 8.8203125 37.51171875 8.8203125 37.6875 12.125 C37.75324218750001 13.220703125 37.818984375000014 14.31640625 37.88671875 15.4453125 C37.905410156250014 15.8668359375 37.905410156250014 15.8668359375 38 18 C30.67034990791899 19.34376918354819 30.67034990791899 19.34376918354819 27.5625 17.75 C26 16 26 16 25 13 C24.670000000000016 14.650000000000006 24.339999999999975 16.299999999999997 24 18 C20.616083071563367 19.063516748937218 19.419536596589865 19.214429816034823 16.1875 17.5625 C15.465624999999989 17.046875 14.743749999999977 16.53125 14 16 C13.339999999999975 16.659999999999997 12.680000000000007 17.319999999999993 12 18 C10.680000000000007 18 9.360000000000014 18 8 18 C8 15.36 8 12.719999999999999 8 10 C6.350000000000023 10 4.699999999999989 10 3 10 C3 12.310000000000002 3 14.620000000000005 3 17 C1.0625 17.5625 1.0625 17.5625 -1 18 C-2 17 -2 17 -2.09765625 13.40234375 C-2.0909822032648435 11.914031328059195 -2.079021830769989 10.425735679356976 -2.0625 8.9375 C-2.0579882812500045 8.178886718749993 -2.053476562500009 7.420273437500001 -2.048828125 6.638671875 C-2.0370068005472035 4.759081287005415 -2.019070776904414 2.879531012688517 -2 1 C-1.339999999999975 0.6700000000000017 -0.6800000000000068 0.3400000000000034 0 0 Z  M0 0 C29.685933816467298 -0.5233563258534915 29.685933816467298 -0.5233563258534915 37 6 C37 6.989999999999995 37 7.980000000000004 37 9 C36.83500000000001 8.773124999999993 36.83500000000001 8.773124999999993 36 7.625 C29.941314640759515 2.702318145617099 20.834207275283262 3.760951322274302 13.5 3.875 C12.391406249999989 3.884023437499998 11.282812500000006 3.893046875000003 10.140625 3.90234375 C7.426854078792871 3.9257383269069592 4.713544551358638 3.9585182512139454 2 4 C1.525624999999991 5.093125000000001 1.0512500000000102 6.186250000000001 0.5625 7.3125 C0.2956640625000091 7.927382812499999 0.028828124999989768 8.542265624999999 -0.24609375 9.17578125 C-0.8996194219456015 10.757110207505647 -1.4589180213925204 12.376754064177561 -2 14 C-1.2886791992187625 13.979052734375003 -0.5773583984374966 13.958105468750006 0.155517578125 13.9365234375 C3.374368280455826 13.853442752869057 6.592993664999568 13.80136534323647 9.8125 13.75 C10.932050781250013 13.716484374999993 12.051601562499997 13.68296875 13.205078125 13.6484375 C14.278222656249994 13.635546875000003 15.351367187499989 13.622656250000006 16.45703125 13.609375 C16.95191040039063 13.598901367187494 16.95191040039063 13.598901367187494 19.456298828125 13.5458984375 C22 14 22 14 23.850341796875 15.8017578125 C25.60913937015411 19.164725183450344 24.976911266838954 21.41799202159052 24 25 C21.9375 26.9375 21.9375 26.9375 20 28 C20.30937499999999 27.257499999999993 20.618750000000006 26.515 20.9375 25.75 C21.809492497419996 23.493078241971773 22.476670066867086 21.354984699098182 23 19 C20 17 20 17 14 16 C14.329999999999984 20.950000000000003 14.659999999999997 25.900000000000006 15 31 C15.990000000000009 31 16.97999999999999 31 18 31 C17.340000000000003 31.659999999999997 16.680000000000007 32.31999999999999 16 33 C15.009999999999991 33 14.02000000000001 33 13 33 C13 27.72 13 22.439999999999998 13 17 C8.710000000000008 17 4.4199999999999875 17 0 17 C0 32.18000000000001 0 47.36 0 63 C4.289999999999992 63 8.580000000000013 63 13 63 C12.773124999999993 60.999375 12.546249999999986 58.99875 12.3125 56.9375 C12.274476320422309 52.58378868835523 12.27362518507914 50.75058730875156 15.34375 47.578125 C22.532541322314046 43 22.532541322314046 43 27 43 C25.58994274663931 44.15395711119049 24.171665415593594 45.297874658790306 22.75 46.4375 C21.961093750000003 47.075585937499994 21.172187500000007 47.713671875 20.359375 48.37109375 C18.137525079186958 49.905053049634176 16.63256517591782 50.57130245988495 14 51 C14.011601562500005 51.9268359375 14.023203125000009 52.853671875 14.03515625 53.80859375 C14.044179687499991 55.0061328125 14.05320312500001 56.203671875 14.0625 57.4375 C14.074101562500005 58.6324609375 14.085703125000009 59.827421875 14.09765625 61.05859375 C14 64 14 64 13 65 C10.83519203389696 65.0989293963004 8.667062150006444 65.12971100467392 6.5 65.125 C5.314062500000006 65.127578125 4.128125000000011 65.13015625 2.90625 65.1328125 C0 65 0 65 -1 64 C-1.093118894388482 62.49581260625226 -1.1174602779106522 60.98728643978005 -1.113525390625 59.480224609375 C-1.113487625122076 58.999764328002925 -1.113487625122076 58.999764328002925 -1.1132965087890625 56.56834411621094 C-1.1081352233886719 55.52356399536133 -1.1029739379882813 54.47878387451172 -1.09765625 53.40234375 C-1.0969487762451138 52.87034614562988 -1.0969487762451138 52.87034614562988 -1.0933685302734375 50.17811584472656 C-1.0877506367611147 46.764549167571076 -1.0751951084959614 43.351047003318726 -1.0625 39.9375 C-1.0574873050732947 37.629558235841756 -1.052923999872803 35.32161544832786 -1.048828125 33.013671875 C-1.0377753962593488 27.342425735693837 -1.0210198675978006 21.671217474808202 -1 16 C-2.319999999999993 16 -3.6399999999999864 16 -5 16 C-4.740691711845386 14.456353014044367 -4.466905239992059 12.91513620093177 -4.1875 11.375 C-4.036679687499998 10.516484375000005 -3.8858593749999955 9.657968749999995 -3.73046875 8.7734375 C-2.8902283797655457 5.583220051516221 -1.5530177657616377 2.901803058217652 0 0 Z  M0 0 C1.3199999999999932 0.3299999999999983 2.6399999999999864 0.6599999999999966 4 1 C4 5.290000000000006 4 9.579999999999998 4 14 C6.310000000000002 14 8.620000000000005 14 11 14 C11.074278383219962 10.657472755101765 11.065469531824704 8.196408595474153 10 5 C10.660000000000025 5 11.319999999999993 5 12 5 C12.329999999999984 3.3499999999999943 12.660000000000025 1.7000000000000028 13 0 C14.319999999999993 0.3299999999999983 15.639999999999986 0.6599999999999966 17 1 C17 2.319999999999993 17 3.6400000000000006 17 5 C17.536249999999995 4.174999999999997 18.07249999999999 3.3499999999999943 18.625 2.5 C21 0 21 0 24.25 -0.3125 C24.703750000000014 -0.26093749999999716 24.703750000000014 -0.26093749999999716 27 0 C27 0.9899999999999949 27 1.980000000000004 27 3 C26.339999999999975 3 25.680000000000007 3 25 3 C25.329999999999984 4.650000000000006 25.660000000000025 6.299999999999997 26 8 C25.339999999999975 8 24.680000000000007 8 24 8 C24 10.969999999999999 24 13.939999999999998 24 17 C22.680000000000007 17.33 21.360000000000014 17.659999999999997 20 18 C17.953015861317226 15.953015861317198 18.299543065774913 11.695887591974255 18 9 C17.670000000000016 11.64 17.339999999999975 14.280000000000001 17 17 C11.523599196301404 18.72154183680624 5.666549843561825 18.05666549843562 0 18 C0 12.060000000000002 0 6.1200000000000045 0 0 Z  M0 0 C1.3199999999999932 0 2.6399999999999864 0 4 0 C4 1.3199999999999932 4 2.6400000000000006 4 4 C4.969375000000014 4.123750000000001 5.938750000000027 4.247500000000002 6.9375 4.375 C7.442812500000002 4.478125000000006 7.442812500000002 4.478125000000006 10 5 C11.322291894433079 7.644583788866129 11.09677194173571 9.67761301073 11.0625 12.625 C11.053476562500009 13.627890624999992 11.044453125000018 14.630781249999998 11.03515625 15.6640625 C11.023554687499995 16.434921875 11.011953124999991 17.20578125 11 18 C9.350000000000023 17.67 7.699999999999989 17.340000000000003 6 17 C5.670000000000016 14.36 5.339999999999975 11.719999999999999 5 9 C4.670000000000016 11.64 4.339999999999975 14.280000000000001 4 17 C0.2677988699005027 17.878164971788124 -3.1654673138971816 18.255635512406855 -7 18 C-9.65450266931515 15.345497330684836 -9.416391208281027 13.697746142789782 -9.6875 10 C-9.773867187500002 8.927499999999995 -9.860234375000005 7.855000000000004 -9.94921875 6.75 C-10 4 -10 4 -9 2 C-7.350000000000023 2 -5.699999999999989 2 -4 2 C-4 2.6599999999999966 -4 3.319999999999993 -4 4 C-3.339999999999975 4 -2.680000000000007 4 -2 4 C-1.339999999999975 2.680000000000007 -0.6800000000000068 1.3599999999999994 0 0 Z M-4 8 C-4 9.980000000000004 -4 11.960000000000008 -4 14 C-3.009999999999991 14 -2.019999999999982 14 -1 14 C-1 11.689999999999998 -1 9.379999999999995 -1 7 C-2 7 -2 7 -4 8 Z  M0 0 C3.734566441765537 2.653507734938671 5.851009031563706 4.50848985065808 7 9 C7.916860644819565 15.679984697971108 5.634375447527361 20.544371531787775 2 26 C-3.166110507701717 32.016790797134604 -9.167306741744653 37.880287888404865 -16 42 C-16.659999999999997 42 -17.319999999999993 42 -18 42 C-18 42.66 -18 43.31999999999999 -18 44 C-15.360000000000014 44 -12.719999999999999 44 -10 44 C-10.089120095712786 45.355240076184174 -10.197279931804275 46.70922900295598 -10.3125 48.0625 C-10.370507812499994 48.8166015625 -10.428515624999989 49.570703124999994 -10.48828125 50.34765625 C-11 53 -11 53 -14 60 C-23.569999999999993 60 -33.139999999999986 60 -43 60 C-43.329999999999984 59.00999999999999 -43.66 58.02000000000001 -44 57 C-44.55985595703126 57.21728759765625 -45.11971191406249 57.434575195312505 -45.696533203125 57.658447265625 C-48.231581844674906 58.636135318920054 -50.77185968038944 59.599441395093464 -53.3125 60.5625 C-53.753037109374986 60.733623046874996 -53.753037109374986 60.733623046874996 -55.982421875 61.599609375 C-56.829980468749994 61.91865234375 -57.67753906249999 62.237695312499994 -58.55078125 62.56640625 C-58.94092407226563 62.71565551757813 -58.94092407226563 62.71565551757813 -60.915283203125 63.470947265625 C-63 64 -63 64 -66 63 C-59.06999999999999 59.370000000000005 -52.139999999999986 55.74000000000001 -45 52 C-43 56 -43 56 -43 58 C-33.43000000000001 58 -23.860000000000014 58 -14 58 C-13.009999999999991 53.71000000000001 -12.02000000000001 49.42 -11 45 C-14.960000000000008 45 -18.920000000000016 45 -23 45 C-19.856606259879527 41.53142759710843 -16.5368567649154 38.92316442008013 -12.6875 36.25 C-5.855375101521076 31.36332497139834 1.2687059410453116 25.193882176864037 4 17 C4.6932238017740815 11.444306388639063 4.398024010497892 7.6213126542771334 1 3 C0.835000000000008 2.5049999999999955 0.835000000000008 2.5049999999999955 0 0 Z  M0 0 C1.3199999999999932 0.3299999999999983 2.6399999999999864 0.6599999999999966 4 1 C3.8362890624999864 1.5207812499999989 3.6725781249999727 2.0415624999999977 3.50390625 2.578125 C2.859413406433191 5.675687503964554 2.9058841094321224 8.58841094321329 2.9375 11.75 C2.946523437499991 12.920468749999998 2.955546874999982 14.090937499999995 2.96484375 15.296875 C2.9764453125000045 16.188906250000002 2.988046875000009 17.080937500000005 3 18 C1.6800000000000068 18 0.36000000000001364 18 -1 18 C-1.329999999999984 16.349999999999994 -1.660000000000025 14.700000000000003 -2 13 C-2.660000000000025 14.319999999999993 -3.319999999999993 15.64 -4 17 C-6.639999999999986 17 -9.279999999999973 17 -12 17 C-12.329999999999984 17.989999999999995 -12.660000000000025 18.980000000000004 -13 20 C-14 19 -14 19 -14.09765625 16.05859375 C-14.086054687499995 14.8636328125 -14.074453124999991 13.668671875000001 -14.0625 12.4375 C-14.053476562500009 11.239960937500001 -14.044453125000018 10.042421875000002 -14.03515625 8.80859375 C-14.023554687499995 7.881757812499998 -14.011953124999991 6.954921874999997 -14 6 C-13.474062500000002 5.927812500000002 -13.474062500000002 5.927812500000002 -10.8125 5.5625 C-9.554374999999993 5.376874999999998 -8.296249999999986 5.191249999999997 -7 5 C-6.071874999999977 4.896874999999994 -5.143750000000011 4.793750000000003 -4.1875 4.6875 C-2 4 -2 4 -0.6875 1.9375 C-0.4606249999999932 1.2981249999999989 -0.23374999999998636 0.6587499999999977 0 0 Z M-10 8 C-11 9 -11 9 -11.0625 11.5625 C-11.041875000000005 12.366874999999993 -11.021250000000009 13.17125 -11 14 C-9.680000000000007 13.670000000000002 -8.360000000000014 13.340000000000003 -7 13 C-7 11.680000000000007 -7 10.36 -7 9 C-7.990000000000009 8.670000000000002 -8.980000000000018 8.340000000000003 -10 8 Z  M0 0 C2.0625 0.4375 2.0625 0.4375 4 1 C4 2.980000000000004 4 4.959999999999994 4 7 C5.319999999999993 7 6.639999999999986 7 8 7 C8 5.019999999999996 8 3.0400000000000063 8 1 C9.9375 0.4375 9.9375 0.4375 12 0 C13 1 13 1 13.09765625 4.59765625 C13.090982203264844 6.085968671940805 13.079021830769989 7.5742643206430245 13.0625 9.0625 C13.057988281250005 9.821113281250007 13.053476562500009 10.5797265625 13.048828125 11.361328125 C13.037006800547204 13.240918712994585 13.019070776904414 15.120468987311483 13 17 C11.0625 17.5625 11.0625 17.5625 9 18 C8 17 8 17 7.9375 13.4375 C7.9581249999999955 12.303124999999994 7.978749999999991 11.168750000000003 8 10 C6.680000000000007 10 5.360000000000014 10 4 10 C4 12.310000000000002 4 14.620000000000005 4 17 C2.0625 17.5625 2.0625 17.5625 0 18 C-1.8211600259397756 16.17883997406021 -1.132350798989819 13.693282359643462 -1.13671875 11.2734375 C-1.1328515624999795 10.523203124999995 -1.128984375000016 9.772968750000004 -1.125 9 C-1.1288671875000205 8.249765624999995 -1.132734374999984 7.499531250000004 -1.13671875 6.7265625 C-1.1266105334539134 1.126610533453885 -1.1266105334539134 1.126610533453885 0 0 Z  M0 0 C3 0.625 3 0.625 5.375 3.125 C5.9112499999999955 3.950000000000003 6.447499999999991 4.775000000000006 7 5.625 C6.690625000000011 6.367500000000007 6.381250000000023 7.109999999999999 6.0625 7.875 C5.190507502579976 10.131921758028227 4.5233299331329135 12.270015300901832 4 14.625 C0.8860622864566494 15.603666138542195 -0.6431807535112171 15.754752453268637 -3.75 14.625 C-6 12.625 -6 12.625 -7.0625 9.25 C-7 5.625 -7 5.625 -5.4375 2.6875 C-3 0.625 -3 0.625 0 0 Z  M0 0 C0.6599999999999682 0.9899999999999949 1.32000000000005 1.980000000000004 2 3 C1.669999999999959 3.4950000000000045 1.669999999999959 3.4950000000000045 0 6 C0.6599999999999682 6.329999999999998 1.32000000000005 6.659999999999997 2 7 C2.3125 9.3125 2.3125 9.3125 2 12 C-0.125 13.875 -0.125 13.875 -3 15 C-5.875 14.6875 -5.875 14.6875 -9 14 C-11.33302988924163 13.962370485657388 -13.667133193379982 13.953342663867602 -16 14 C-16 13.670000000000002 -16 13.340000000000003 -16 13 C-14.019999999999982 12.670000000000002 -12.039999999999964 12.340000000000003 -10 12 C-10 10.680000000000007 -10 9.36 -10 8 C-10.990000000000009 7.340000000000003 -11.980000000000018 6.680000000000007 -13 6 C-13 5.340000000000003 -13 4.680000000000007 -13 4 C-11.67999999999995 4 -10.360000000000014 4 -9 4 C-9.330000000000041 3.010000000000005 -9.659999999999968 2.019999999999996 -10 1 C-6.6129299827370005 0.22581256748273404 -3.473382822107965 -0.37550084563329733 0 0 Z M-9 4 C-9.659999999999968 4.659999999999997 -10.32000000000005 5.319999999999993 -11 6 C-9.25 8.0625 -9.25 8.0625 -7 10 C-4.75 9.75 -4.75 9.75 -3 9 C-4.980000000000018 7.349999999999994 -6.960000000000036 5.700000000000003 -9 4 Z  M0 0 C0 11.219999999999999 0 22.439999999999998 0 34 C11.880000000000003 33.67 23.760000000000005 33.34 36 33 C31.570274022624574 37.429725977375426 24.962150970749278 36.1640450296473 19.08203125 36.185546875 C18.3918994140625 36.18546630859376 17.701767578125 36.18538574218749 16.99072265625 36.185302734375 C14.87512405412734 36.18749987116465 12.760038432612717 36.20570776754337 10.64453125 36.224609375 C9.302085114909033 36.227541616338144 7.959636507520088 36.22952754424563 6.6171875 36.23046875 C5.396284179687498 36.23457763671874 4.175380859374997 36.23868652343751 2.91748046875 36.242919921875 C0 36 0 36 -2 34 C-2.302978515625 31.142578125 -2.302978515625 31.142578125 -2.37890625 27.53125 C-2.413066406250003 26.238320312500008 -2.447226562499999 24.945390625 -2.482421875 23.61328125 C-2.5097649029643563 22.242200314829148 -2.5364499547037056 20.871106110812462 -2.5625 19.5 C-2.6203174598081347 16.822704074239553 -2.6858449104064306 14.145829357347054 -2.75390625 11.46875 C-2.7778344726562523 10.277011718750003 -2.8017626953124974 9.085273437500007 -2.826416015625 7.857421875 C-3 5 -3 5 -4 3 C-1.125 0 -1.125 0 0 0 Z  M0 0 C0.9900000000000091 0.3299999999999983 1.9800000000000182 0.6599999999999966 3 1 C3.329999999999984 2.6500000000000057 3.660000000000025 4.299999999999997 4 6 C5.649999999999977 6.329999999999998 7.300000000000011 6.659999999999997 9 7 C9 5.349999999999994 9 3.700000000000003 9 2 C9.660000000000025 2 10.319999999999993 2 11 2 C11 6.950000000000003 11 11.900000000000006 11 17 C10.339999999999975 17 9.680000000000007 17 9 17 C9 14.689999999999998 9 12.379999999999995 9 10 C7.019999999999982 10 5.0400000000000205 10 3 10 C3 12.310000000000002 3 14.620000000000005 3 17 C1.0625 17.5625 1.0625 17.5625 -1 18 C-2 17 -2 17 -2.09765625 13.40234375 C-2.0909822032648435 11.914031328059195 -2.079021830769989 10.425735679356976 -2.0625 8.9375 C-2.0579882812500045 8.178886718749993 -2.053476562500009 7.420273437500001 -2.048828125 6.638671875 C-2.0370068005472035 4.759081287005415 -2.019070776904414 2.879531012688517 -2 1 C-1.339999999999975 0.6700000000000017 -0.6800000000000068 0.3400000000000034 0 0 Z  M0 0 C0.3299999999999983 0 0.6599999999999966 0 1 0 C1 1.6500000000000057 1 3.299999999999997 1 5 C1.3911901855468756 4.997381591796881 1.3911901855468756 4.997381591796881 3.370849609375 4.984130859375 C6.893058334735656 4.963428940670781 10.41525430064469 4.950361617055549 13.9375 4.9375 C14.553349609374997 4.933310546875006 14.553349609374997 4.933310546875006 17.669921875 4.912109375 C18.83974609375 4.908886718749997 20.009570312500003 4.905664062499994 21.21484375 4.90234375 C21.756854248046878 4.899725341796881 21.756854248046878 4.899725341796881 24.499755859375 4.886474609375 C27 5 27 5 28 6 C28.5 8.625 28.5 8.625 28 12 C24.855349496269348 16.241822520142165 22.162516687839577 18.709370828040107 17 20 C17 15.379999999999995 17 10.760000000000005 17 6 C12.71 6 8.420000000000002 6 4 6 C4 7.980000000000004 4 9.960000000000008 4 12 C2.609375 13.71484375 2.609375 13.71484375 0.75 14.9375 C0.146718749999998 15.3590234375 -0.456562500000004 15.780546874999999 -1.078125 16.21484375 C-3.457411301065015 17.186869251044854 -4.621259338429837 16.847294793169908 -7 16 C-6.434101562499997 15.697070312500003 -5.868203125000001 15.394140625000006 -5.28515625 15.08203125 C0.7804459691252106 11.617495711835332 0.7804459691252106 11.617495711835332 2 8.1875 C2 7.465625000000003 2 6.743750000000006 2 6 C1.009999999999998 5.670000000000002 0.01999999999999602 5.340000000000003 -1 5 C-0.6700000000000017 3.3499999999999943 -0.3400000000000034 1.7000000000000028 0 0 Z M18 8 C17.8046875 10.3828125 17.8046875 10.3828125 17.875 13.125 C17.893046874999996 14.035078124999998 17.91109375 14.945156249999997 17.9296875 15.8828125 C17.952890624999995 16.581484375000002 17.976093750000004 17.280156250000005 18 18 C22.326403289164958 16.05450815690655 24.287546200737737 13.87493399894609 27 10 C26.8125 7.625 26.8125 7.625 26 6 C20.25 5.75 20.25 5.75 18 8 Z  M0 0 C0.660000000000025 0 1.3199999999999932 0 2 0 C2 1.6500000000000057 2 3.299999999999997 2 5 C2.474375000000009 4.989687500000002 2.474375000000009 4.989687500000002 4.875 4.9375 C8 5 8 5 10 6 C10 9.629999999999995 10 13.260000000000005 10 17 C8.350000000000023 16.67 6.699999999999989 16.340000000000003 5 16 C4.670000000000016 13.36 4.339999999999975 10.719999999999999 4 8 C3.670000000000016 10.64 3.339999999999975 13.280000000000001 3 16 C2.009999999999991 16 1.0199999999999818 16 0 16 C0 10.719999999999999 0 5.439999999999998 0 0 Z  M0 0 C1.3199999999999932 0.3299999999999983 2.6399999999999864 0.6599999999999966 4 1 C4 5.290000000000006 4 9.579999999999998 4 14 C6.310000000000002 14 8.620000000000005 14 11 14 C11.329999999999984 14.989999999999995 11.660000000000025 15.980000000000004 12 17 C11 18 11 18 8.49609375 18.09765625 C5.6640625 18.06510416666667 2.83203125 18.03255208333333 0 18 C0 12.060000000000002 0 6.1200000000000045 0 0 Z  M0 0 C1 2 2 4 3 6 C7.6200000000000045 6.165000000000006 7.6200000000000045 6.165000000000006 31 7 C31 7.329999999999998 31 7.659999999999997 31 8 C21.430000000000007 8 11.860000000000014 8 2 8 C1.670000000000016 7.010000000000005 1.3400000000000034 6.019999999999996 1 5 C0.44014404296873977 5.217287597656252 -0.11971191406249204 5.4345751953125045 -0.696533203125 5.658447265625 C-3.2315818446749347 6.636135318920054 -5.7718596803894116 7.599441395093464 -8.3125 8.5625 C-8.753037109374986 8.733623046874996 -8.753037109374986 8.733623046874996 -10.982421875 9.599609375 C-11.829980468749994 9.918652343749997 -12.677539062499989 10.237695312499994 -13.55078125 10.56640625 C-14.331066894531261 10.864904785156256 -15.111352539062494 11.163403320312511 -15.915283203125 11.470947265625 C-18 12 -18 12 -21 11 C-14.069999999999993 7.3700000000000045 -7.139999999999986 3.739999999999995 0 0 Z  M0 0 C1.3199999999999932 0.3299999999999983 2.6399999999999864 0.6599999999999966 4 1 C3.8362890624999864 1.5207812499999989 3.6725781249999727 2.0415624999999977 3.50390625 2.578125 C2.859413406433191 5.675687503964554 2.9058841094321224 8.58841094321329 2.9375 11.75 C2.9420117187499955 12.335234374999999 2.9420117187499955 12.335234374999999 2.96484375 15.296875 C2.9764453125000045 16.188906250000002 2.988046875000009 17.080937500000005 3 18 C1.6800000000000068 18 0.36000000000001364 18 -1 18 C-1.329999999999984 16.349999999999994 -1.660000000000025 14.700000000000003 -2 13 C-2.660000000000025 13.659999999999997 -3.319999999999993 14.319999999999993 -4 15 C-4.329999999999984 12.030000000000001 -4.660000000000025 9.060000000000002 -5 6 C-4.009999999999991 5.340000000000003 -3.019999999999982 4.680000000000007 -2 4 C-0.8125 1.875 -0.8125 1.875 0 0 Z  M0 0 C1.9800000000000182 0 3.9599999999999795 0 6 0 C6 0.9899999999999949 6 1.980000000000004 6 3 C5.339999999999975 3 4.680000000000007 3 4 3 C4.329999999999984 4.650000000000006 4.660000000000025 6.299999999999997 5 8 C4.339999999999975 8 3.680000000000007 8 3 8 C3 10.969999999999999 3 13.939999999999998 3 17 C1.6800000000000068 17.33 0.36000000000001364 17.659999999999997 -1 18 C-1.1685224674992014 16.39602722898104 -1.3347488648596482 14.791813103654349 -1.5 13.1875 C-1.5928124999999795 12.294179687500005 -1.685625000000016 11.400859374999996 -1.78125 10.48046875 C-2.146588463704859 6.337791527632518 -1.6423641623313188 3.7979671253911533 0 0 Z  M0 0 C0.8249999999999886 0.16500000000000625 0.8249999999999886 0.16500000000000625 5 1 C5.0605859374999795 1.9036328125000068 5.121171875000016 2.8072656249999994 5.18359375 3.73828125 C5.267382812499989 4.917773437500003 5.351171874999977 6.097265625000006 5.4375 7.3125 C5.518710937499975 8.484257812500005 5.599921875000007 9.656015624999995 5.68359375 10.86328125 C6 14 6 14 7 17 C4.625 17.625 4.625 17.625 2 18 C0 16 0 16 -0.1953125 12.3046875 C-0.18200899931775893 10.827998924273174 -0.15814834784066534 9.35137641536565 -0.125 7.875 C-0.12048828125000455 7.497949218749994 -0.12048828125000455 7.497949218749994 -0.09765625 5.58984375 C-0.07406870198298066 3.7264274566534397 -0.038197190579523976 1.8631740738220657 0 0 Z  M0 0 C2.0874938341390674 -0.009630882741127778 4.173971172899002 -0.040603004726364134 6.26123046875 -0.072265625 C7.601068391872744 -0.07880327842440948 8.940913348037128 -0.08405074892794318 10.28076171875 -0.087890625 C11.494575195312507 -0.09723632812499972 12.708388671875 -0.10658203124999943 13.958984375 -0.1162109375 C18.084392404582957 0.3000361753673886 20.78268621756898 1.4406652167008005 24.49169921875 3.240234375 C21.614509432703386 4.678829268023307 19.633856302505166 3.795595620350241 16.49169921875 3.240234375 C14.256686878548578 3.0990986655759585 12.019072200770864 2.9957004799272724 9.78076171875 2.923828125 C8.536816406249997 2.8819335937499986 7.292871093750001 2.840039062499997 6.01123046875 2.796875 C4.726035156249999 2.757558593749998 3.4408398437499983 2.718242187500003 2.11669921875 2.677734375 C0.8083007812499972 2.634550781249999 -0.5000976562499986 2.5913671874999977 -1.84814453125 2.546875 C-5.068098752851604 2.441110080312356 -8.288126087445335 2.3390185858673576 -11.50830078125 2.240234375 C-11.838300781249998 4.550234375000002 -12.168300781249997 6.8602343750000045 -12.50830078125 9.240234375 C-13.168300781249997 9.240234375 -13.82830078125 9.240234375 -14.50830078125 9.240234375 C-13.303102395018215 -1.606551101086076 -10.691845012477884 0.029858538550087133 0 0 Z  M0 0 C0.3299999999999841 0 0.660000000000025 0 1 0 C1.329999999999984 1.6500000000000057 1.660000000000025 3.299999999999997 2 5 C3.980000000000018 5 5.9599999999999795 5 8 5 C8.329999999999984 3.3499999999999943 8.660000000000025 1.7000000000000028 9 0 C9.660000000000025 0 10.319999999999993 0 11 0 C11 5.280000000000001 11 10.560000000000002 11 16 C9.680000000000007 15.670000000000002 8.360000000000014 15.340000000000003 7 15 C7 12.689999999999998 7 10.379999999999995 7 8 C5.019999999999982 8 3.0400000000000205 8 1 8 C1 10.310000000000002 1 12.620000000000005 1 15 C0.6700000000000159 15 0.339999999999975 15 0 15 C0 10.049999999999997 0 5.099999999999994 0 0 Z  M0 0 C0.6187499999999773 0.020624999999995453 0.6187499999999773 0.020624999999995453 3.75 0.125 C4.079999999999984 0.7849999999999966 4.410000000000025 1.4449999999999932 4.75 2.125 C1.7799999999999727 2.125 -1.1899999999999977 2.125 -4.25 2.125 C-3.920000000000016 6.415000000000006 -3.589999999999975 10.704999999999998 -3.25 15.125 C-2.920000000000016 14.465000000000003 -2.589999999999975 13.805000000000007 -2.25 13.125 C-0.2699999999999818 13.125 1.7099999999999795 13.125 3.75 13.125 C0.75 15.125 0.75 15.125 -1.25 15.125 C-1.579999999999984 16.444999999999993 -1.910000000000025 17.765 -2.25 19.125 C-4.171875 18.6015625 -4.171875 18.6015625 -6.25 17.125 C-6.879239691243299 14.48338054147871 -7.262985126394312 12.176292947797592 -7.5 9.5 C-7.577343750000011 8.79359375 -7.654687500000023 8.087187499999999 -7.734375 7.359375 C-7.9228161132126615 5.6162947027831365 -8.08858868920754 3.8707907562026804 -8.25 2.125 C-5.350433899674044 0.4662392128765873 -3.3336479052215964 -0.11112159684071798 0 0 Z  M0 0 C2.3100000000000023 0 4.6200000000000045 0 7 0 C8.202728190336188 2.4054563806723195 8.100714721042152 3.949969527048239 8.0625 6.625 C8.053476562500009 7.4422656250000045 8.044453125000018 8.259531249999995 8.03515625 9.1015625 C8.023554687499995 9.728046875000004 8.011953124999991 10.354531250000008 8 11 C5.360000000000014 11 2.7200000000000273 11 0 11 C-0.625 8.625 -0.625 8.625 -1 6 C-0.339999999999975 5.340000000000003 0.3199999999999932 4.680000000000007 1 4 C2.319999999999993 4 3.6399999999999864 4 5 4 C5 3.010000000000005 5 2.019999999999996 5 1 C3.3500000000000227 1 1.6999999999999886 1 0 1 C0 0.6700000000000017 0 0.3400000000000034 0 0 Z  M0 0 C0.40218749999996817 0.010312499999997726 0.40218749999996817 0.010312499999997726 2.4375 0.0625 C2.767500000000041 1.3824999999999932 3.097499999999968 2.7025000000000006 3.4375 4.0625 C2.11749999999995 4.0625 0.7975000000000136 4.0625 -0.5625 4.0625 C0.11812499999996362 4.619375000000005 0.7987500000000409 5.176249999999996 1.5 5.75 C2.1393749999999727 6.513125000000002 2.7787499999999454 7.2762500000000045 3.4375 8.0625 C3.1875 10.8125 3.1875 10.8125 2.4375 13.0625 C0.12750000000005457 13.0625 -2.1825000000000045 13.0625 -4.5625 13.0625 C-4.5625 12.072500000000005 -4.5625 11.082499999999996 -4.5625 10.0625 C-3.572499999999991 9.732500000000002 -2.582499999999982 9.402500000000003 -1.5625 9.0625 C-2.222500000000025 8.072500000000005 -2.882499999999993 7.082499999999996 -3.5625 6.0625 C-3.75 3.4375 -3.75 3.4375 -3.5625 1.0625 C-2.5625 0.0625 -2.5625 0.0625 0 0 Z  M0 0 C0.6599999999999966 0.6599999999999966 1.3199999999999932 1.3199999999999932 2 2 C0.046875 1.9348958333333286 -1.90625 1.8697916666666714 -3.859375 1.8046875 C-6.396364586781857 2.0361646520786394 -7.901109253683941 2.551857039659666 -10 4 C-12.135200787136498 13.455889200175932 -9.894489335825071 22.903033515978365 -7 32 C-7.659999999999997 32 -8.319999999999993 32 -9 32 C-13.60183330503655 23.996811643414702 -14.00823253907754 14.074092851697884 -13 5 C-9.898896511434074 -0.43605199760379776 -5.8943315684791315 -0.3215089946443186 0 0 Z  M0 0 C4.668619810060854 1.6048380597084133 9.092581666306941 3.9749019352053665 13 7 C13 7.659999999999997 13 8.319999999999993 13 9 C3.621862289059692 8.658762868736176 -5.024894269466934 8.02339366770076 -14 5 C-10.557302528773036 3.8443527267947104 -8.145873736437835 4.183027056477613 -4.625 4.9375 C-0.6708417113232912 5.726214303899383 2.9491135963620465 6.218966832629064 7 6 C6.030625000000001 5.381249999999994 5.061250000000001 4.762499999999989 4.0625 4.125 C1 2 1 2 0 0 Z  M0 0 C0.3299999999999841 0.6599999999999966 0.6599999999999966 1.3199999999999932 1 2 C0.4289453124999909 1.8556250000000034 -0.14210937499998977 1.7112500000000068 -0.73046875 1.5625 C-10.833643812659545 -0.7504685358075918 -20.782916148192854 -0.38536730193995083 -31 1 C-30 -1 -30 -1 -26.90234375 -2.10546875 C-18.102467953285498 -4.392404082020427 -8.118554053466 -4.2216481078023165 0 0 Z  M0 0 C1.3199999999999932 0.3299999999999983 2.6399999999999864 0.6599999999999966 4 1 C4.660000000000025 5.950000000000003 5.319999999999993 10.900000000000006 6 16 C3 18 3 18 -1 18 C-1 15.36 -1 12.719999999999999 -1 10 C-0.6700000000000159 10 -0.339999999999975 10 0 10 C0 12.310000000000002 0 14.620000000000005 0 17 C0.660000000000025 17 1.3199999999999932 17 2 17 C2 12.049999999999997 2 7.099999999999994 2 2 C1.339999999999975 2 0.6800000000000068 2 0 2 C0 3.6500000000000057 0 5.299999999999997 0 7 C-0.660000000000025 6.670000000000002 -1.3199999999999932 6.340000000000003 -2 6 C-1.339999999999975 4.019999999999996 -0.6800000000000068 2.0400000000000063 0 0 Z  M0 0 C3 1 3 1 4 3 C4.933741621801445 12.29604791831433 5.759911076473031 22.720240378461412 0.19140625 30.63671875 C-0.5155422011917068 31.445653207265266 -1.240345121521159 32.24034512152116 -2 33 C-3.9995836369269 33.04080782932505 -6.00045253988587 33.04254356298115 -8 33 C-8 32.00999999999999 -8 31.019999999999996 -8 30 C-6.349999999999994 30.33 -4.700000000000003 30.659999999999997 -3 31 C-2.348650748931348 29.439791328835554 -1.7041703553766467 27.876714211505345 -1.0625 26.3125 C-0.7028515625000011 25.4423828125 -0.3432031250000023 24.572265625 0.02734375 23.67578125 C1.7054396132289753 19.059332790916272 2.1565265998534358 14.837491903185736 2.1875 9.9375 C2.194589843749995 9.426386718749995 2.194589843749995 9.426386718749995 2.23046875 6.83984375 C2.001588082624039 4.019568407926769 1.4527577915837924 2.3944663995669657 0 0 Z  M0 0 C2.9700000000000273 0 5.939999999999998 0 9 0 C10.60725634584287 3.2145126916857123 10.05748184910027 6.436125355782735 10 10 C8 7 8 7 7.0625 4.375 C6.7118750000000205 3.5912500000000023 6.361249999999984 2.8075000000000045 6 2 C5.009999999999991 1.6700000000000017 4.019999999999982 1.3400000000000034 3 1 C2.969062500000007 1.6393750000000011 2.969062500000007 1.6393750000000011 2.8125 4.875 C2.7776953124999864 5.594296874999998 2.7428906249999727 6.3135937499999955 2.70703125 7.0546875 C2.8037109375 7.696640625000001 2.900390625 8.338593750000001 3 9 C3.990000000000009 9.659999999999997 4.980000000000018 10.319999999999993 6 11 C4.680000000000007 11 3.3600000000000136 11 2 11 C2 12.319999999999993 2 13.64 2 15 C1.339999999999975 15 0.6800000000000068 15 0 15 C0 10.049999999999997 0 5.099999999999994 0 0 Z  M0 0 C2.75 -0.3125 2.75 -0.3125 6 0 C8.375 2.5 8.375 2.5 10 5 C9.690625000000011 5.763125000000002 9.381250000000023 6.5262500000000045 9.0625 7.3125 C8.321064068484986 9.187896767949724 7.6377178277089115 11.086846516873251 7 13 C7 12.340000000000003 7 11.680000000000007 7 11 C5.019999999999982 11 3.0400000000000205 11 1 11 C0.6700000000000159 9.680000000000007 0.339999999999975 8.36 0 7 C2.6399999999999864 7 5.279999999999973 7 8 7 C7.4375 5.0625 7.4375 5.0625 6 3 C2.375 2.25 2.375 2.25 -1 2 C-0.6700000000000159 1.3400000000000034 -0.339999999999975 0.6800000000000068 0 0 Z  M0 0 C6.15234375 -0.09765625 6.15234375 -0.09765625 8 0 C9 1 9 1 9.09765625 3.28515625 C9.086054687499995 4.201679687500004 9.074453124999991 5.118203124999994 9.0625 6.0625 C9.053476562500009 6.981601562500003 9.044453125000018 7.900703125000007 9.03515625 8.84765625 C9.023554687499995 9.557929687500007 9.011953124999991 10.268203125 9 11 C8.339999999999975 11 7.680000000000007 11 7 11 C6.670000000000016 8.030000000000001 6.339999999999975 5.060000000000002 6 2 C5.009999999999991 2 4.019999999999982 2 3 2 C2.670000000000016 4.969999999999999 2.339999999999975 7.939999999999998 2 11 C1.339999999999975 11 0.6800000000000068 11 0 11 C0 7.3700000000000045 0 3.739999999999995 0 0 Z  M0 0 C0.660000000000025 0 1.3199999999999932 0 2 0 C3.625 2 3.625 2 5 4 C4.339999999999975 4 3.680000000000007 4 3 4 C3 6.640000000000001 3 9.280000000000001 3 12 C3.990000000000009 12 4.980000000000018 12 6 12 C6 12.659999999999997 6 13.319999999999993 6 14 C4.019999999999982 14 2.0400000000000205 14 0 14 C-0.19456704715832984 12.042356171668473 -0.3804424746877544 10.083846791334537 -0.5625 8.125 C-0.6669140624999841 7.034453124999999 -0.771328125000025 5.943906249999998 -0.87890625 4.8203125 C-1 2 -1 2 0 0 Z  M0 0 C0.990000000000002 0.3299999999999983 1.9799999999999969 0.6599999999999966 3 1 C2.6700000000000017 13.870000000000005 2.3400000000000034 26.74000000000001 2 40 C1.6700000000000017 40 1.3400000000000034 40 1 40 C0.6700000000000017 26.799999999999997 0.3400000000000034 13.599999999999994 0 0 Z  M0 0 C1.9800000000000182 0 3.9600000000000364 0 6 0 C4.67999999999995 0.3299999999999983 3.3600000000000136 0.6599999999999966 2 1 C2 1.9899999999999949 2 2.980000000000004 2 4 C2.990000000000009 4.165000000000006 2.990000000000009 4.165000000000006 8 5 C8.042721001320956 6.666119051515807 8.040638320757807 8.333828848928249 8 10 C7 11 7 11 3.4375 11.0625 C2.3031250000000227 11.041875000000005 1.1687500000000455 11.021249999999995 0 11 C0 10.340000000000003 0 9.680000000000007 0 9 C1.32000000000005 9 2.6399999999999864 9 4 9 C4 8.010000000000005 4 7.019999999999996 4 6 C2.67999999999995 5.340000000000003 1.3600000000000136 4.680000000000007 0 4 C0 2.680000000000007 0 1.3599999999999994 0 0 Z  M0 0 C2.3329477539977574 -0.04241723189086599 4.667025668643305 -0.040929374234323745 7 0 C8.663428370374845 1.6634283703748736 8.360480965473585 3.7825708960591697 8.5625 6.0625 C8.646289062499989 6.981601562500003 8.730078124999977 7.900703125000007 8.81640625 8.84765625 C8.87699218749998 9.557929687500007 8.937578125000016 10.268203125 9 11 C6.360000000000014 11 3.7200000000000273 11 1 11 C0.6700000000000159 9.680000000000007 0.339999999999975 8.36 0 7 C0.3299999999999841 7.659999999999997 0.660000000000025 8.319999999999993 1 9 C2.6499999999999773 9 4.300000000000011 9 6 9 C6 7.680000000000007 6 6.359999999999999 6 5 C5.009999999999991 4.670000000000002 4.019999999999982 4.340000000000003 3 4 C3.660000000000025 4 4.319999999999993 4 5 4 C5 3.010000000000005 5 2.019999999999996 5 1 C3.3500000000000227 1 1.6999999999999886 1 0 1 C0 0.6700000000000017 0 0.3400000000000034 0 0 Z  M0 0 C0.660000000000025 0 1.3199999999999932 0 2 0 C2 4.6200000000000045 2 9.239999999999995 2 14 C4.310000000000002 14 6.6200000000000045 14 9 14 C9 14.659999999999997 9 15.319999999999993 9 16 C6.029999999999973 16 3.0600000000000023 16 0 16 C0 10.719999999999999 0 5.439999999999998 0 0 Z  M0 0 C0.6599999999999682 0.9899999999999949 1.32000000000005 1.980000000000004 2 3 C1.3400000000000318 4.319999999999993 0.67999999999995 5.640000000000001 0 7 C-1.32000000000005 6.670000000000002 -2.6399999999999864 6.340000000000003 -4 6 C-4 5.010000000000005 -4 4.019999999999996 -4 3 C-4.659999999999968 2.6700000000000017 -5.32000000000005 2.3400000000000034 -6 2 C-5.340000000000032 3.980000000000004 -4.67999999999995 5.959999999999994 -4 8 C-6.993242629588394 6.902477702484276 -7.8461090095117925 6.323171080025247 -9.25 3.375 C-9.497499999999945 2.5912500000000023 -9.745000000000005 1.8075000000000045 -10 1 C-6.6129299827370005 0.22581256748273404 -3.473382822107965 -0.37550084563329733 0 0 Z  M0 0 C1.3199999999999932 0.3299999999999983 2.6399999999999864 0.6599999999999966 4 1 C3.339999999999975 2.6500000000000057 2.680000000000007 4.299999999999997 2 6 C1.009999999999991 6 0.01999999999998181 6 -1 6 C-1.660000000000025 8.969999999999999 -2.319999999999993 11.939999999999998 -3 15 C-3.329999999999984 15 -3.660000000000025 15 -4 15 C-4.329999999999984 12.030000000000001 -4.660000000000025 9.060000000000002 -5 6 C-4.009999999999991 5.340000000000003 -3.019999999999982 4.680000000000007 -2 4 C-0.8125 1.875 -0.8125 1.875 0 0 Z  M0 0 C0 3 0 3 -1.5 5.9375 C-4.424284203002578 12.406789109472683 -3.53471285641254 20.242312745151224 -2 27 C-2.6599999999999966 26.67 -3.3200000000000003 26.340000000000003 -4 26 C-5.2229217015773415 22.33123489526797 -5.145638124863943 18.94305309982998 -5.125 15.125 C-5.128867187499999 14.417304687500007 -5.132734374999998 13.709609375 -5.13671875 12.98046875 C-5.12970752724722 9.215442131758095 -5.08482363681162 5.622901579540695 -4 2 C-1.9375 0.6875 -1.9375 0.6875 0 0 Z  M0 0 C0.660000000000025 0 1.3199999999999932 0 2 0 C2.329999999999984 1.980000000000004 2.660000000000025 3.9599999999999937 3 6 C3.990000000000009 6.165000000000006 3.990000000000009 6.165000000000006 9 7 C9 7.989999999999995 9 8.980000000000004 9 10 C6.75 10.75 6.75 10.75 4 11 C1.6875 9.5 1.6875 9.5 0 7 C-0.25 3.25 -0.25 3.25 0 0 Z  M0 0 C2.8593649615802406 2.6107245301384836 3.861816510855718 4.557001924837536 4.23828125 8.48828125 C4.396309946757725 14.501689026622628 4.28156468020785 18.361638263108162 0 23 C-2.25 24.375 -2.25 24.375 -4 25 C-4 23 -4 23 -1.5625 20.5 C-0.7168750000000017 19.674999999999997 0.1287499999999966 18.849999999999994 1 18 C2.1698334481060613 15.660333103787892 2.166124099069606 14.166084733321952 2.1875 11.5625 C2.201679687500004 10.780039062499995 2.2158593749999937 9.997578125000004 2.23046875 9.19140625 C2 7 2 7 0 4 C0 2.680000000000007 0 1.3599999999999994 0 0 Z  M0 0 C1.875 0.1875 1.875 0.1875 4 1 C5.78284814441821 4.298269067173649 6 6.177475098363047 6 10 C0.125 9.125 0.125 9.125 -1 8 C-1.2352941176470722 2.470588235294116 -1.2352941176470722 2.470588235294116 0 0 Z M1 1 C0 2 0 2 -0.0625 4.5625 C-0.04187500000000455 5.366874999999993 -0.021250000000009095 6.171250000000001 0 7 C0.9900000000000091 7 1.9800000000000182 7 3 7 C3 5.349999999999994 3 3.700000000000003 3 2 C2.339999999999975 1.6700000000000017 1.6800000000000068 1.3400000000000034 1 1 Z  M0 0 C6.9504108555211985 -0.26618594765825776 13.235143549404341 0.38794910113465164 20 2 C20 2.3299999999999983 20 2.6599999999999966 20 3 C19.47019531250001 2.9941992187499977 19.47019531250001 2.9941992187499977 16.7890625 2.96484375 C15.40104342484355 2.9554652427354284 14.0130224491256 2.9463651068831 12.625 2.9375 C12.275664062499999 2.933310546874999 12.275664062499999 2.933310546874999 10.5078125 2.912109375 C5.2265625 2.88671875 5.2265625 2.88671875 3 4 C2.009999999999991 3.3400000000000034 1.0200000000000102 2.6799999999999997 0 2 C0 1.3400000000000034 0 0.6799999999999997 0 0 Z  M0 0 C0.3299999999999841 0.6599999999999966 0.660000000000025 1.3199999999999932 1 2 C2.6499999999999773 2 4.300000000000011 2 6 2 C6 1.3400000000000034 6 0.6800000000000068 6 0 C6.660000000000025 0 7.319999999999993 0 8 0 C8 1.6500000000000057 8 3.299999999999997 8 5 C5.360000000000014 5.329999999999998 2.7200000000000273 5.659999999999997 0 6 C0 4.019999999999996 0 2.0400000000000063 0 0 Z  M0 0 C0.3300000000000125 0.9899999999999949 0.6599999999999966 1.980000000000004 1 3 C-1.463816359399999 7.864917393287996 -4.916289430263561 12.387486803694685 -9 16 C-9.659999999999997 15.670000000000002 -10.319999999999993 15.340000000000003 -11 15 C-10.529492187499997 14.492109374999998 -10.058984374999994 13.984218749999997 -9.57421875 13.4609375 C-5.994596209512849 9.503342393126005 -3.1670530694195236 5.936065324788899 -1 1 C-0.6699999999999875 0.6700000000000017 -0.3400000000000034 0.3400000000000034 0 0 Z  M0 0 C2.339447359494784 0.28730055292041357 4.673914300841204 0.6193677946831002 7 1 C6.670000000000016 2.6500000000000057 6.339999999999975 4.299999999999997 6 6 C4.350000000000023 6 2.6999999999999886 6 1 6 C1 5.010000000000005 1 4.019999999999996 1 3 C0.339999999999975 2.3400000000000034 -0.3199999999999932 1.6800000000000068 -1 1 C-0.6700000000000159 0.6700000000000017 -0.339999999999975 0.3400000000000034 0 0 Z  M0 0 C2.625 0.375 2.625 0.375 5 1 C5 2.319999999999993 5 3.6400000000000006 5 5 C3.3500000000000227 5 1.6999999999999886 5 0 5 C0 5.659999999999997 0 6.319999999999993 0 7 C-0.660000000000025 7 -1.3199999999999932 7 -2 7 C-2.125 4.625 -2.125 4.625 -2 2 C-1.339999999999975 1.3400000000000034 -0.6800000000000068 0.6800000000000068 0 0 Z  M0 0 C0.3300000000000125 1.3199999999999932 0.6599999999999966 2.6400000000000006 1 4 C-2.227915548053005 6.151943698702013 -3.2840080920240666 6.200864427458157 -7 6 C-6 3 -6 3 -2.9375 1.3125 C-1.9681249999999864 0.879374999999996 -0.9987500000000011 0.44625000000000625 0 0 Z  M0 0 C1.675429756312269 0.2860489827850188 3.343853426426733 0.6178123291753934 5 1 C5 2.319999999999993 5 3.6400000000000006 5 5 C4.608124999999973 4.989687500000002 4.608124999999973 4.989687500000002 2.625 4.9375 C0 5 0 5 -2 6 C-1.125 1.125 -1.125 1.125 0 0 Z  M0 0 C0.6599999999999966 0.3299999999999983 1.3199999999999932 0.6599999999999966 2 1 C0.8803014031539362 2.00593242925207 -0.24594120142751308 3.0045848959524193 -1.375 4 C-1.688242187500009 4.2784374999999955 -1.688242187500009 4.2784374999999955 -3.2734375 5.6875 C-5 7 -5 7 -7 7 C-7 7.659999999999997 -7 8.319999999999993 -7 9 C-8.319999999999993 8.670000000000002 -9.639999999999986 8.340000000000003 -11 8 C-7.3700000000000045 5.359999999999999 -3.740000000000009 2.719999999999999 0 0 Z  M0 0 C7.515898251192368 0.6160572337042822 7.515898251192368 0.6160572337042822 9.8125 2.4375 C10.204374999999999 2.953125 10.596249999999998 3.46875 11 4 C11.990000000000002 4.659999999999997 12.98 5.319999999999993 14 6 C8.292909358548783 5.534115049677439 4.840602767010882 4.062422158721176 0 1 C0 0.6699999999999875 0 0.3400000000000034 0 0 Z  M0 0 C1.9800000000000182 0 3.9599999999999795 0 6 0 C6 1.3199999999999932 6 2.6400000000000006 6 4 C3.08517222287162 4.809674382535661 1.5388678327163916 5.218459932182313 -1.3125 4.0625 C-1.869374999999991 3.7118750000000063 -2.426249999999982 3.3612499999999983 -3 3 C-1.6800000000000068 2.6700000000000017 -0.36000000000001364 2.3400000000000034 1 2 C0.6700000000000159 1.3400000000000034 0.339999999999975 0.6800000000000068 0 0 Z  M0 0 C1.6499999999999773 0.3299999999999983 3.3000000000000114 0.6599999999999966 5 1 C4.670000000000016 2.319999999999993 4.339999999999975 3.6400000000000006 4 5 C2.3500000000000227 4.670000000000002 0.6999999999999886 4.340000000000003 -1 4 C-0.6700000000000159 2.680000000000007 -0.339999999999975 1.3599999999999994 0 0 Z  M0 0 C0.3299999999999841 0 0.660000000000025 0 1 0 C1.0605859374999795 0.9036328125000068 1.121171875000016 1.8072656249999994 1.18359375 2.73828125 C1.2673828124999886 3.917773437500003 1.3511718749999773 5.097265625000006 1.4375 6.3125 C1.518710937499975 7.4842578125000045 1.5999218750000068 8.656015624999995 1.68359375 9.86328125 C2 13 2 13 3 16 C1.3500000000000227 16.33 -0.30000000000001137 16.659999999999997 -2 17 C-2.329999999999984 16.340000000000003 -2.660000000000025 15.680000000000007 -3 15 C-2.339999999999975 15 -1.6800000000000068 15 -1 15 C-0.6700000000000159 10.049999999999997 -0.339999999999975 5.099999999999994 0 0 Z  M0 0 C0.3299999999999983 0 0.6599999999999966 0 1 0 C1.375 2.6875 1.375 2.6875 1 6 C-0.8080087876397428 8.339776078122014 -2.4258756321439847 9.366421074245224 -5 11 C-7.203125000000007 10.62890625 -7.203125000000007 10.62890625 -9 10 C-8.434101562499997 9.697070312500003 -7.868203125000001 9.394140625000006 -7.28515625 9.08203125 C-1.2195540308747894 5.617495711835332 -1.2195540308747894 5.617495711835332 0 2.1875 C0 1.4656250000000028 0 0.7437500000000057 0 0 Z  M0 0 C0.40218749999996817 0.010312499999997726 0.40218749999996817 0.010312499999997726 2.4375 0.0625 C2.767500000000041 1.3824999999999932 3.097499999999968 2.7025000000000006 3.4375 4.0625 C2.11749999999995 4.0625 0.7975000000000136 4.0625 -0.5625 4.0625 C-0.8925000000000409 4.722499999999997 -1.2224999999999682 5.382499999999993 -1.5625 6.0625 C-2.222500000000025 4.412499999999994 -2.882499999999993 2.762500000000003 -3.5625 1.0625 C-2.5625 0.0625 -2.5625 0.0625 0 0 Z  M0 0 C1.9375 0.375 1.9375 0.375 4 1 C4.329999999999984 1.6599999999999966 4.660000000000025 2.319999999999993 5 3 C4.670000000000016 3.6599999999999966 4.339999999999975 4.319999999999993 4 5 C2.3500000000000227 4.670000000000002 0.6999999999999886 4.340000000000003 -1 4 C-0.6700000000000159 2.680000000000007 -0.339999999999975 1.3599999999999994 0 0 Z  M0 0 C1.9800000000000182 0 3.9599999999999795 0 6 0 C7.60725634584287 3.2145126916857123 7.05748184910027 6.436125355782735 7 10 C5 7 5 7 4.0625 4.4375 C3 2 3 2 0 0 Z  M0 0 C0.9900000000000091 0.3299999999999983 1.9800000000000182 0.6599999999999966 3 1 C3 4.299999999999997 3 7.599999999999994 3 11 C2.339999999999975 10.670000000000002 1.6800000000000068 10.340000000000003 1 10 C0.37400757028086673 6.61964087951668 0 3.438301151585989 0 0 Z  M0 0 C0.6599999999999682 0 1.32000000000005 0 2 0 C1.669999999999959 1.6500000000000057 1.3400000000000318 3.299999999999997 1 5 C-0.9800000000000182 5 -2.9600000000000364 5 -5 5 C-5 4.340000000000003 -5 3.680000000000007 -5 3 C-3.3500000000000227 3 -1.7000000000000455 3 0 3 C0 2.010000000000005 0 1.019999999999996 0 0 Z  M0 0 C0.3299999999999983 0.9899999999999949 0.6599999999999966 1.980000000000004 1 3 C1.6599999999999966 3 2.319999999999993 3 3 3 C3.6599999999999966 5.310000000000002 4.319999999999993 7.6200000000000045 5 10 C4.340000000000003 10 3.680000000000007 10 3 10 C0.9656446948960706 6.270348607309458 0 4.330949582834336 0 0 Z  M0 0 C2.9320047403522906 2.8527613689914233 5.643154038457702 5.650797844124099 8 9 C4.206209420195581 7.5095822722196885 2.3165624155365148 5.309374879337881 0 2 C0 1.3400000000000034 0 0.6800000000000068 0 0 Z  M0 0 C0.3299999999999841 0 0.660000000000025 0 1 0 C1.329999999999984 2.3100000000000023 1.660000000000025 4.6200000000000045 2 7 C2.990000000000009 7.329999999999998 3.980000000000018 7.659999999999997 5 8 C5 8.659999999999997 5 9.319999999999993 5 10 C3.3500000000000227 9.670000000000002 1.6999999999999886 9.340000000000003 0 9 C0 6.030000000000001 0 3.0600000000000023 0 0 Z  M0 0 C0.6599999999999966 0.3299999999999983 1.3199999999999932 0.6599999999999966 2 1 C2 1.6599999999999966 2 2.319999999999993 2 3 C-0.9699999999999989 3.6599999999999966 -3.9399999999999977 4.319999999999993 -7 5 C-2.25 1.125 -2.25 1.125 0 0 Z " fill="currentColor" />
</svg>